<svg xmlns="http://www.w3.org/2000/svg" width="48" height="48" viewBox="0 0 48 48">
  <g>
    <path fill="#4285F4" d="M24 9.5c3.54 0 6.36 1.22 8.32 3.22l6.18-6.18C34.36 2.7 29.64 0 24 0 14.64 0 6.48 6.48 2.88 15.88l7.6 5.91C12.36 14.36 17.64 9.5 24 9.5z"/>
    <path fill="#34A853" d="M46.09 24.5c0-1.64-.15-3.22-.44-4.75H24v9.02h12.44c-.54 2.74-2.18 5.06-4.64 6.62l7.18 5.59C43.52 36.52 46.09 30.98 46.09 24.5z"/>
    <path fill="#FBBC05" d="M10.48 28.39c-.48-1.44-.76-2.98-.76-4.39s.28-2.95.76-4.39l-7.6-5.91C1.08 17.98 0 21.09 0 24.5c0 3.41 1.08 6.52 2.88 9.41l7.6-5.91z"/>
    <path fill="#EA4335" d="M24 48c6.54 0 12.04-2.16 16.06-5.89l-7.18-5.59c-2.01 1.35-4.59 2.15-8.88 2.15-6.36 0-11.64-4.86-13.52-11.41l-7.6 5.91C6.48 41.52 14.64 48 24 48z"/>
    <path fill="none" d="M0 0h48v48H0z"/>
  </g>
</svg>
